<?xml version="1.0" standalone="no"?>
<!DOCTYPE svg PUBLIC "-//W3C//DTD SVG 20010904//EN"
 "http://www.w3.org/TR/2001/REC-SVG-20010904/DTD/svg10.dtd">
<svg version="1.0" xmlns="http://www.w3.org/2000/svg"
 width="787.000000pt" height="787.000000pt" viewBox="0 0 787.000000 787.000000"
 preserveAspectRatio="xMidYMid meet">
<metadata>
Created by potrace 1.14, written by Peter Selinger 2001-2017
</metadata>
<g transform="translate(0.000000,787.000000) scale(0.100000,-0.100000)"
fill="#000000" stroke="none">
<path d="M4699 6758 c0 -24 -1 -133 -1 -243 0 -110 -2 -204 -5 -208 -3 -4 -11
-3 -19 4 -24 19 -144 14 -195 -8 -176 -78 -215 -318 -72 -443 25 -22 40 -31
103 -59 20 -9 116 -7 157 3 31 7 32 6 30 -23 l-2 -30 -315 3 c-173 2 -326 6
-340 10 -13 3 -34 17 -45 31 -25 32 -170 181 -211 216 -112 97 -271 199 -414
266 -60 29 -83 46 -94 68 -22 45 -55 137 -60 165 -2 14 -9 43 -14 65 -6 22
-13 73 -16 114 -3 41 -8 76 -11 79 -2 3 -19 1 -37 -4 l-33 -10 -2 -169 c0 -94
-2 -178 -2 -187 -1 -15 -5 -16 -27 -8 -23 9 -71 21 -139 36 -22 5 -53 10 -102
19 -18 3 -46 7 -62 10 -17 3 -48 6 -71 7 -22 1 -43 5 -46 9 -2 4 -7 36 -9 70
-3 34 -6 64 -9 66 -3 4 -15 -1 -118 -46 -26 -12 -50 -21 -52 -21 -2 0 -42 -18
-88 -39 -55 -26 -105 -42 -148 -46 -36 -4 -74 -9 -85 -12 -11 -2 -31 -6 -45
-8 -94 -14 -321 -85 -420 -133 -30 -14 -57 -26 -60 -27 -13 -1 -165 -89 -168
-96 -2 -5 -8 -9 -14 -9 -6 0 -58 -35 -117 -77 -112 -81 -325 -287 -401 -388
-25 -33 -52 -68 -60 -77 -8 -9 -39 -56 -69 -105 -30 -48 -62 -100 -72 -115
-11 -15 -19 -34 -19 -42 0 -8 -3 -16 -7 -18 -21 -9 -109 -217 -156 -368 -34
-106 -69 -256 -81 -340 -28 -206 -27 -493 4 -655 5 -27 11 -61 14 -75 9 -52
39 -175 44 -185 4 -5 7 -16 8 -22 3 -18 43 -144 54 -168 4 -11 17 -40 27 -65
24 -61 120 -254 156 -315 16 -27 29 -51 28 -52 0 -2 -1 -11 -1 -21 0 -16 9
-27 65 -80 11 -10 27 -29 35 -41 54 -80 152 -194 265 -306 99 -99 131 -128
200 -179 26 -20 92 -18 -692 -17 -406 1 -653 -3 -653 -9 0 -5 60 -70 133 -145
l132 -135 305 0 c958 -1 1277 -4 1295 -10 11 -4 25 -9 30 -10 6 -1 19 -7 29
-12 19 -11 134 -46 174 -54 12 -2 34 -6 50 -10 65 -13 82 -14 169 -17 50 -2
115 0 145 3 29 4 54 7 55 6 2 -1 5 -51 8 -112 3 -60 7 -134 10 -164 3 -30 7
-88 10 -129 7 -83 16 -106 74 -176 23 -27 41 -55 41 -61 0 -6 19 -19 43 -30
23 -10 44 -21 47 -24 8 -10 219 -100 318 -136 130 -47 317 -95 462 -119 19 -3
46 -8 60 -10 84 -14 200 -20 385 -20 230 0 313 7 480 40 39 8 84 16 102 19 57
11 287 83 393 125 58 22 159 67 224 100 102 51 123 58 145 49 14 -5 33 -11 41
-13 8 -2 33 -8 55 -14 71 -18 108 -23 195 -23 115 0 214 20 355 69 80 29 298
133 303 145 2 4 8 8 13 8 12 0 113 62 117 72 2 4 8 8 14 8 6 0 26 11 44 25 18
14 37 25 42 25 6 0 12 3 14 8 2 4 28 25 58 47 30 22 61 45 68 52 7 7 17 13 21
13 16 0 188 178 240 248 l54 72 315 0 314 0 107 108 c58 59 122 124 140 144
l34 37 -149 0 c-82 0 -205 0 -273 0 l-124 1 7 59 c4 33 9 90 13 128 3 37 7 79
8 93 2 14 3 35 4 48 1 20 5 23 31 18 41 -6 77 13 96 52 28 60 -10 131 -72 136
-16 1 -36 6 -44 11 -8 6 -62 10 -119 10 -85 0 -104 3 -106 15 -12 75 -17 100
-27 130 -25 80 -30 96 -38 115 -66 158 -127 257 -213 345 -56 58 -114 110
-122 110 -2 0 -25 13 -51 30 -52 33 -160 75 -214 84 -19 3 -53 9 -75 12 -22 4
-88 7 -147 8 -59 1 -110 5 -114 8 -3 4 -6 536 -7 1183 0 950 -2 1175 -12 1175
-8 0 -15 4 -17 9 -8 22 -511 301 -542 301 -3 0 -29 11 -58 24 -56 26 -198 81
-234 91 -20 5 -22 1 -23 -47 -1 -29 -4 -78 -6 -108 -7 -100 -16 -214 -21 -275
-2 -33 -6 -87 -8 -120 -2 -33 -7 -98 -11 -145 -7 -77 -11 -133 -14 -183 -1
-10 -7 -17 -13 -14 -7 2 -23 1 -34 -4 -12 -4 -25 -5 -28 -2 -3 3 -81 6 -173 5
l-168 -1 0 59 c1 45 7 66 27 97 36 54 51 110 46 169 -6 63 -7 68 -43 129 l-30
52 1 262 c0 144 -2 264 -5 265 -3 2 -21 7 -38 11 l-33 7 -1 -44z m-13 -1087
c8 -1 11 -124 10 -423 l-1 -423 -37 -3 c-40 -3 -30 -16 -158 202 -46 79 -141
241 -153 261 -7 11 -22 35 -35 53 -13 17 -21 32 -17 32 3 0 -40 66 -94 147
-55 81 -96 150 -91 153 6 4 524 5 576 1z m482 0 c13 -1 21 -4 19 -8 -3 -5 -8
-53 -11 -108 -4 -55 -9 -131 -12 -169 -11 -150 -19 -262 -29 -411 -7 -90 -10
-124 -14 -147 0 -5 -79 -8 -173 -8 l-173 0 0 422 0 423 24 5 c20 4 264 5 369
1z m-67 -1129 c1 -10 1 -20 0 -25 0 -4 -3 -44 -6 -90 -8 -123 -14 -179 -18
-183 -9 -9 -236 245 -270 302 -4 7 40 11 144 11 132 1 149 -1 150 -15z m2346
-1604 c29 -27 29 -65 1 -95 -22 -23 -62 -31 -73 -14 -3 5 2 30 10 55 8 25 15
48 14 53 -5 30 17 31 48 1z"/>
</g>
</svg>
